<svg width="24" height="19" viewBox="0 0 24 19" fill="none" xmlns="http://www.w3.org/2000/svg">
<path d="M9.08691 12.9248C9.08691 13.9453 8.55469 15.6152 7.29492 15.6152C6.03516 15.6152 5.50293 13.9453 5.50293 12.9248C5.50293 11.9043 6.03516 10.2344 7.29492 10.2344C8.55469 10.2344 9.08691 11.9043 9.08691 12.9248V12.9248ZM23.4375 10.459C23.4375 12.0166 23.2813 13.667 22.583 15.0977C20.7324 18.8379 15.6445 18.75 12.002 18.75C8.30078 18.75 2.91016 18.8818 0.986328 15.0977C0.273438 13.6816 0 12.0166 0 10.459C0 8.41309 0.678711 6.47949 2.02637 4.91211C1.77246 4.14063 1.65039 3.33008 1.65039 2.5293C1.65039 1.47949 1.88965 0.952148 2.36328 0C4.5752 0 5.99121 0.439453 7.67578 1.75781C9.0918 1.4209 10.5469 1.26953 12.0068 1.26953C13.3252 1.26953 14.6533 1.41113 15.9326 1.71875C17.5928 0.415039 19.0088 0 21.1963 0C21.6748 0.952148 21.9092 1.47949 21.9092 2.5293C21.9092 3.33008 21.7822 4.12598 21.5332 4.88281C22.876 6.46484 23.4375 8.41309 23.4375 10.459V10.459ZM20.2979 12.9248C20.2979 10.7813 18.9941 8.8916 16.709 8.8916C15.7861 8.8916 14.9023 9.05762 13.9746 9.18457C13.2471 9.29688 12.5195 9.34082 11.7725 9.34082C11.0303 9.34082 10.3027 9.29688 9.57031 9.18457C8.65723 9.05762 7.76367 8.8916 6.83594 8.8916C4.55078 8.8916 3.24707 10.7813 3.24707 12.9248C3.24707 17.2119 7.17285 17.8711 10.5908 17.8711H12.9443C16.377 17.8711 20.2979 17.2168 20.2979 12.9248V12.9248ZM16.2646 10.2344C15.0049 10.2344 14.4727 11.9043 14.4727 12.9248C14.4727 13.9453 15.0049 15.6152 16.2646 15.6152C17.5244 15.6152 18.0566 13.9453 18.0566 12.9248C18.0566 11.9043 17.5244 10.2344 16.2646 10.2344Z" fill="url(#paint0_linear_19_3)"/>
<defs>
<linearGradient id="paint0_linear_19_3" x1="11.7188" y1="0" x2="11.7188" y2="18.7506" gradientUnits="userSpaceOnUse">
<stop stop-color="#B6F829"/>
<stop offset="1" stop-color="#67DD0A"/>
</linearGradient>
</defs>
</svg>
