<svg width="317" height="40" viewBox="0 0 317 40" fill="none" xmlns="http://www.w3.org/2000/svg">
<path d="M20.52 5.73602L19.704 11.352H7.992V19.32H18.216V24.84H7.992V33.336H20.52V39H0.119995V5.73602H20.52Z" fill="#3D3D3D"/>
<path d="M47.1521 3.38402V39H40.4321L40.0481 36.024C38.2561 38.552 35.8401 39.816 32.8001 39.816C29.6321 39.816 27.2161 38.6 25.5521 36.168C23.9201 33.736 23.1041 30.408 23.1041 26.184C23.1041 23.592 23.5361 21.272 24.4001 19.224C25.2641 17.176 26.4801 15.576 28.0481 14.424C29.6481 13.272 31.4721 12.696 33.5201 12.696C35.9521 12.696 37.9681 13.496 39.5681 15.096V2.56802L47.1521 3.38402ZM35.1521 34.248C36.9121 34.248 38.3841 33.288 39.5681 31.368V20.376C38.9601 19.64 38.3361 19.096 37.6961 18.744C37.0881 18.392 36.3841 18.216 35.5841 18.216C34.1761 18.216 33.0561 18.872 32.2241 20.184C31.3921 21.496 30.9761 23.512 30.9761 26.232C30.9761 29.208 31.3281 31.288 32.0321 32.472C32.7681 33.656 33.8081 34.248 35.1521 34.248Z" fill="#3D3D3D"/>
<path d="M60.6694 13.512V39H53.0854V13.512H60.6694ZM56.8294 0.0720215C58.1414 0.0720215 59.2134 0.488022 60.0454 1.32002C60.9094 2.12002 61.3414 3.14402 61.3414 4.39202C61.3414 5.64002 60.9094 6.68002 60.0454 7.51202C59.2134 8.31202 58.1414 8.71202 56.8294 8.71202C55.5174 8.71202 54.4454 8.31202 53.6134 7.51202C52.7814 6.68002 52.3654 5.64002 52.3654 4.39202C52.3654 3.14402 52.7814 2.12002 53.6134 1.32002C54.4454 0.488022 55.5174 0.0720215 56.8294 0.0720215Z" fill="#3D3D3D"/>
<path d="M94.8083 12.696C96.8242 12.696 98.4402 13.384 99.6562 14.76C100.872 16.104 101.48 17.976 101.48 20.376V39H93.8962V21.672C93.8962 19.4 93.1762 18.264 91.7362 18.264C90.9362 18.264 90.2322 18.536 89.6242 19.08C89.0162 19.624 88.4242 20.456 87.8482 21.576V39H80.2642V21.672C80.2642 19.4 79.5442 18.264 78.1042 18.264C77.3362 18.264 76.6322 18.552 75.9922 19.128C75.3842 19.672 74.7922 20.488 74.2162 21.576V39H66.6322V13.512H73.2562L73.7842 16.488C74.7762 15.208 75.8642 14.264 77.0482 13.656C78.2642 13.016 79.6402 12.696 81.1762 12.696C82.6162 12.696 83.8482 13.048 84.8722 13.752C85.9282 14.456 86.6962 15.448 87.1762 16.728C88.2002 15.352 89.3202 14.344 90.5362 13.704C91.7842 13.032 93.2083 12.696 94.8083 12.696Z" fill="#3D3D3D"/>
<path d="M114.763 13.512V39H107.179V13.512H114.763ZM110.923 0.0720215C112.235 0.0720215 113.307 0.488022 114.139 1.32002C115.003 2.12002 115.435 3.14402 115.435 4.39202C115.435 5.64002 115.003 6.68002 114.139 7.51202C113.307 8.31202 112.235 8.71202 110.923 8.71202C109.611 8.71202 108.539 8.31202 107.707 7.51202C106.875 6.68002 106.459 5.64002 106.459 4.39202C106.459 3.14402 106.875 2.12002 107.707 1.32002C108.539 0.488022 109.611 0.0720215 110.923 0.0720215Z" fill="#3D3D3D"/>
<path d="M127.494 39.816C125.286 39.816 123.558 39.192 122.31 37.944C121.094 36.664 120.486 34.856 120.486 32.52V3.38402L128.07 2.56802V32.232C128.07 33.288 128.502 33.816 129.366 33.816C129.814 33.816 130.23 33.736 130.614 33.576L132.102 38.952C130.726 39.528 129.19 39.816 127.494 39.816Z" fill="#3D3D3D"/>
<path d="M143.952 12.696C145.776 12.696 147.488 12.968 149.088 13.512C150.688 14.056 152.096 14.824 153.312 15.816L150.528 20.088C148.448 18.776 146.352 18.12 144.24 18.12C143.248 18.12 142.48 18.296 141.936 18.648C141.424 18.968 141.168 19.432 141.168 20.04C141.168 20.52 141.28 20.92 141.504 21.24C141.76 21.528 142.256 21.832 142.992 22.152C143.728 22.472 144.864 22.856 146.4 23.304C149.056 24.072 151.024 25.08 152.304 26.328C153.616 27.544 154.272 29.24 154.272 31.416C154.272 33.144 153.776 34.648 152.784 35.928C151.792 37.176 150.432 38.136 148.704 38.808C146.976 39.48 145.056 39.816 142.944 39.816C140.8 39.816 138.8 39.48 136.944 38.808C135.12 38.136 133.568 37.208 132.288 36.024L135.984 31.896C138.128 33.56 140.384 34.392 142.752 34.392C143.904 34.392 144.8 34.184 145.44 33.768C146.112 33.352 146.448 32.76 146.448 31.992C146.448 31.384 146.32 30.904 146.064 30.552C145.808 30.2 145.312 29.88 144.576 29.592C143.84 29.272 142.672 28.888 141.072 28.44C138.544 27.704 136.656 26.68 135.408 25.368C134.16 24.056 133.536 22.424 133.536 20.472C133.536 19 133.952 17.688 134.784 16.536C135.648 15.352 136.864 14.424 138.432 13.752C140.032 13.048 141.872 12.696 143.952 12.696Z" fill="#3D3D3D"/>
<path d="M169.219 12.696C173.123 12.696 176.179 13.896 178.387 16.296C180.595 18.664 181.699 21.992 181.699 26.28C181.699 29 181.187 31.384 180.163 33.432C179.171 35.448 177.731 37.016 175.843 38.136C173.987 39.256 171.779 39.816 169.219 39.816C165.347 39.816 162.291 38.632 160.051 36.264C157.843 33.864 156.739 30.52 156.739 26.232C156.739 23.512 157.235 21.144 158.227 19.128C159.251 17.08 160.691 15.496 162.547 14.376C164.435 13.256 166.659 12.696 169.219 12.696ZM169.219 18.264C167.683 18.264 166.531 18.92 165.763 20.232C164.995 21.512 164.611 23.512 164.611 26.232C164.611 29.016 164.979 31.048 165.715 32.328C166.483 33.608 167.651 34.248 169.219 34.248C170.755 34.248 171.907 33.608 172.675 32.328C173.443 31.016 173.827 29 173.827 26.28C173.827 23.496 173.443 21.464 172.675 20.184C171.939 18.904 170.787 18.264 169.219 18.264Z" fill="#3D3D3D"/>
<path d="M201.138 12.696C203.346 12.696 205.074 13.368 206.322 14.712C207.57 16.056 208.194 17.944 208.194 20.376V39H200.61V21.672C200.61 20.392 200.402 19.512 199.986 19.032C199.602 18.52 199.01 18.264 198.21 18.264C196.674 18.264 195.202 19.368 193.794 21.576V39H186.21V13.512H192.834L193.362 16.536C194.45 15.256 195.618 14.296 196.866 13.656C198.146 13.016 199.57 12.696 201.138 12.696Z" fill="#3D3D3D"/>
<path d="M243.16 21.384C245.368 21.8 247.16 22.616 248.536 23.832C249.944 25.048 250.648 26.872 250.648 29.304C250.648 32.856 249.368 35.368 246.808 36.84C244.28 38.28 240.728 39 236.152 39H225.448V5.73602H234.856C239.528 5.73602 243.096 6.40802 245.56 7.75202C248.024 9.06402 249.256 11.224 249.256 14.232C249.256 16.184 248.664 17.768 247.48 18.984C246.328 20.168 244.888 20.968 243.16 21.384ZM233.32 11.304V19.032H236.248C239.576 19.032 241.24 17.688 241.24 15C241.24 13.656 240.792 12.712 239.896 12.168C239 11.592 237.576 11.304 235.624 11.304H233.32ZM236.2 33.288C238.28 33.288 239.848 32.984 240.904 32.376C241.992 31.736 242.536 30.568 242.536 28.872C242.536 25.8 240.616 24.264 236.776 24.264H233.32V33.288H236.2Z" fill="#3D3D3D"/>
<path d="M268.753 12.792C269.681 12.792 270.529 12.904 271.297 13.128L270.097 20.472C269.137 20.248 268.369 20.136 267.793 20.136C266.289 20.136 265.137 20.664 264.337 21.72C263.569 22.744 262.961 24.296 262.513 26.376V39H254.929V13.512H261.553L262.177 18.456C262.753 16.696 263.617 15.32 264.769 14.328C265.953 13.304 267.281 12.792 268.753 12.792Z" fill="#3D3D3D"/>
<path d="M292.763 31.608C292.763 32.568 292.891 33.272 293.147 33.72C293.435 34.168 293.883 34.504 294.491 34.728L292.907 39.672C291.339 39.544 290.059 39.208 289.067 38.664C288.075 38.088 287.307 37.192 286.763 35.976C285.099 38.536 282.539 39.816 279.083 39.816C276.555 39.816 274.539 39.08 273.035 37.608C271.531 36.136 270.779 34.216 270.779 31.848C270.779 29.064 271.803 26.936 273.851 25.464C275.899 23.992 278.859 23.256 282.731 23.256H285.323V22.152C285.323 20.648 285.003 19.624 284.363 19.08C283.723 18.504 282.603 18.216 281.003 18.216C280.171 18.216 279.163 18.344 277.979 18.6C276.795 18.824 275.579 19.144 274.331 19.56L272.603 14.568C274.203 13.96 275.835 13.496 277.499 13.176C279.195 12.856 280.763 12.696 282.203 12.696C285.851 12.696 288.523 13.448 290.219 14.952C291.915 16.456 292.763 18.712 292.763 21.72V31.608ZM281.291 34.392C283.019 34.392 284.363 33.576 285.323 31.944V27.432H283.451C281.723 27.432 280.427 27.736 279.563 28.344C278.731 28.952 278.315 29.896 278.315 31.176C278.315 32.2 278.571 33 279.083 33.576C279.627 34.12 280.363 34.392 281.291 34.392Z" fill="#3D3D3D"/>
<path d="M316.756 13.512V18.84L305.236 33.24H316.996L316.324 39H296.452V33.624L308.02 19.224H297.46V13.512H316.756Z" fill="#3D3D3D"/>
</svg>
