<svg width="483" height="46" viewBox="0 0 483 46" fill="none" xmlns="http://www.w3.org/2000/svg">
<path d="M31.7223 6.82956L30.483 13.1486H12.6947V22.114H28.223V28.325H12.6947V37.8845H31.7223V44.2575H0.738708V6.82956H31.7223Z" fill="#B8B8B8"/>
<path d="M72.1713 4.18314V44.2575H61.9649L61.3817 40.909C58.66 43.7534 54.9906 45.1757 50.3734 45.1757C45.5618 45.1757 41.8924 43.8074 39.3651 41.071C36.8864 38.3346 35.6471 34.59 35.6471 29.8372C35.6471 26.9208 36.3032 24.3103 37.6154 22.006C38.9277 19.7016 40.7746 17.9013 43.156 16.6051C45.5861 15.3089 48.3564 14.6608 51.4669 14.6608C55.1607 14.6608 58.2226 15.5609 60.6527 17.3612V3.26499L72.1713 4.18314ZM53.9456 38.9107C56.6187 38.9107 58.8544 37.8305 60.6527 35.6701V23.3022C59.7292 22.474 58.7815 21.8619 57.8095 21.4659C56.886 21.0698 55.8168 20.8718 54.6017 20.8718C52.4633 20.8718 50.7622 21.6099 49.4986 23.0861C48.2349 24.5624 47.6031 26.8307 47.6031 29.8912C47.6031 33.2398 48.1377 35.5801 49.207 36.9123C50.3248 38.2445 51.9044 38.9107 53.9456 38.9107Z" fill="#B8B8B8"/>
<path d="M92.7013 15.5789V44.2575H81.1827V15.5789H92.7013ZM86.8691 0.456543C88.8618 0.456543 90.4899 0.924618 91.7536 1.86077C93.0658 2.76091 93.7219 3.91309 93.7219 5.31732C93.7219 6.72154 93.0658 7.89173 91.7536 8.82788C90.4899 9.72802 88.8618 10.1781 86.8691 10.1781C84.8764 10.1781 83.2483 9.72802 81.9846 8.82788C80.721 7.89173 80.0892 6.72154 80.0892 5.31732C80.0892 3.91309 80.721 2.76091 81.9846 1.86077C83.2483 0.924618 84.8764 0.456543 86.8691 0.456543Z" fill="#B8B8B8"/>
<path d="M144.552 14.6608C147.613 14.6608 150.068 15.4349 151.915 16.9832C153.762 18.4954 154.685 20.6017 154.685 23.3022V44.2575H143.166V24.7604C143.166 22.204 142.073 20.9258 139.886 20.9258C138.671 20.9258 137.602 21.2318 136.678 21.8439C135.755 22.456 134.856 23.3922 133.981 24.6524V44.2575H122.462V24.7604C122.462 22.204 121.369 20.9258 119.181 20.9258C118.015 20.9258 116.946 21.2498 115.974 21.898C115.05 22.51 114.151 23.4282 113.276 24.6524V44.2575H101.758V15.5789H111.818L112.62 18.9275C114.127 17.4873 115.779 16.4251 117.578 15.741C119.424 15.0209 121.514 14.6608 123.847 14.6608C126.034 14.6608 127.905 15.0569 129.461 15.849C131.065 16.6411 132.231 17.7573 132.96 19.1975C134.515 17.6493 136.216 16.5151 138.063 15.795C139.959 15.0389 142.121 14.6608 144.552 14.6608Z" fill="#B8B8B8"/>
<path d="M174.859 15.5789V44.2575H163.34V15.5789H174.859ZM169.027 0.456543C171.02 0.456543 172.648 0.924618 173.911 1.86077C175.224 2.76091 175.88 3.91309 175.88 5.31732C175.88 6.72154 175.224 7.89173 173.911 8.82788C172.648 9.72802 171.02 10.1781 169.027 10.1781C167.034 10.1781 165.406 9.72802 164.142 8.82788C162.879 7.89173 162.247 6.72154 162.247 5.31732C162.247 3.91309 162.879 2.76091 164.142 1.86077C165.406 0.924618 167.034 0.456543 169.027 0.456543Z" fill="#B8B8B8"/>
<path d="M194.195 45.1757C190.841 45.1757 188.217 44.4735 186.321 43.0693C184.474 41.6291 183.551 39.5948 183.551 36.9663V4.18314L195.07 3.26499V36.6423C195.07 37.8305 195.726 38.4246 197.038 38.4246C197.718 38.4246 198.35 38.3346 198.933 38.1545L201.193 44.2035C199.104 44.8516 196.771 45.1757 194.195 45.1757Z" fill="#B8B8B8"/>
<path d="M219.191 14.6608C221.962 14.6608 224.562 14.9668 226.992 15.5789C229.422 16.191 231.56 17.0552 233.407 18.1714L229.179 22.9781C226.02 21.5019 222.836 20.7638 219.629 20.7638C218.122 20.7638 216.956 20.9618 216.129 21.3579C215.352 21.7179 214.963 22.24 214.963 22.9241C214.963 23.4642 215.133 23.9143 215.473 24.2743C215.862 24.5984 216.615 24.9404 217.733 25.3005C218.851 25.6606 220.576 26.0926 222.909 26.5967C226.943 27.4608 229.932 28.595 231.876 29.9992C233.869 31.3675 234.865 33.2758 234.865 35.7241C234.865 37.6685 234.112 39.3607 232.605 40.801C231.099 42.2052 229.033 43.2854 226.409 44.0415C223.784 44.7976 220.868 45.1757 217.66 45.1757C214.404 45.1757 211.366 44.7976 208.547 44.0415C205.777 43.2854 203.42 42.2412 201.476 40.909L207.089 36.2642C210.346 38.1365 213.772 39.0727 217.369 39.0727C219.118 39.0727 220.479 38.8386 221.451 38.3706C222.472 37.9025 222.982 37.2364 222.982 36.3723C222.982 35.6881 222.788 35.1481 222.399 34.752C222.01 34.3559 221.257 33.9959 220.139 33.6718C219.021 33.3118 217.247 32.8797 214.817 32.3756C210.978 31.5475 208.11 30.3953 206.215 28.9191C204.319 27.4428 203.371 25.6065 203.371 23.4102C203.371 21.7539 204.003 20.2777 205.267 18.9815C206.579 17.6493 208.426 16.6051 210.807 15.849C213.238 15.0569 216.032 14.6608 219.191 14.6608Z" fill="#B8B8B8"/>
<path d="M257.567 14.6608C263.496 14.6608 268.138 16.011 271.491 18.7114C274.845 21.3759 276.522 25.1205 276.522 29.9452C276.522 33.0057 275.744 35.6881 274.189 37.9925C272.682 40.2609 270.495 42.0252 267.628 43.2854C264.809 44.5456 261.455 45.1757 257.567 45.1757C251.686 45.1757 247.045 43.8434 243.643 41.179C240.289 38.4786 238.612 34.716 238.612 29.8912C238.612 26.8307 239.366 24.1663 240.872 21.898C242.428 19.5936 244.615 17.8113 247.434 16.5511C250.301 15.2909 253.679 14.6608 257.567 14.6608ZM257.567 20.9258C255.234 20.9258 253.485 21.6639 252.318 23.1401C251.152 24.5804 250.568 26.8307 250.568 29.8912C250.568 33.0237 251.127 35.3101 252.245 36.7503C253.412 38.1905 255.186 38.9107 257.567 38.9107C259.9 38.9107 261.65 38.1905 262.816 36.7503C263.982 35.2741 264.566 33.0057 264.566 29.9452C264.566 26.8127 263.982 24.5264 262.816 23.0861C261.698 21.6459 259.949 20.9258 257.567 20.9258Z" fill="#B8B8B8"/>
<path d="M306.046 14.6608C309.4 14.6608 312.024 15.4169 313.92 16.9292C315.815 18.4414 316.763 20.5657 316.763 23.3022V44.2575H305.244V24.7604C305.244 23.3202 304.928 22.33 304.296 21.7899C303.713 21.2138 302.814 20.9258 301.599 20.9258C299.266 20.9258 297.031 22.168 294.892 24.6524V44.2575H283.373V15.5789H293.434L294.236 18.9815C295.888 17.5413 297.662 16.4611 299.558 15.741C301.502 15.0209 303.665 14.6608 306.046 14.6608Z" fill="#B8B8B8"/>
<path d="M369.869 24.4364C373.222 24.9044 375.944 25.8226 378.034 27.1908C380.172 28.559 381.242 30.6113 381.242 33.3478C381.242 37.3444 379.298 40.1709 375.409 41.8271C371.57 43.4474 366.175 44.2575 359.225 44.2575H342.968V6.82956H357.257C364.353 6.82956 369.772 7.58568 373.514 9.09792C377.256 10.5742 379.128 13.0045 379.128 16.3891C379.128 18.5854 378.228 20.3677 376.43 21.7359C374.68 23.0681 372.493 23.9683 369.869 24.4364ZM354.924 13.0946V21.7899H359.371C364.426 21.7899 366.953 20.2777 366.953 17.2532C366.953 15.741 366.272 14.6788 364.912 14.0667C363.551 13.4186 361.388 13.0946 358.423 13.0946H354.924ZM359.298 37.8305C362.457 37.8305 364.839 37.4884 366.442 36.8043C368.095 36.0842 368.921 34.77 368.921 32.8617C368.921 29.4051 366.005 27.6769 360.173 27.6769H354.924V37.8305H359.298Z" fill="#B8B8B8"/>
<path d="M408.74 14.7688C410.149 14.7688 411.437 14.8948 412.603 15.1469L410.781 23.4102C409.323 23.1582 408.156 23.0321 407.282 23.0321C404.997 23.0321 403.248 23.6262 402.033 24.8144C400.866 25.9666 399.943 27.7129 399.262 30.0532V44.2575H387.744V15.5789H397.804L398.752 21.1418C399.627 19.1615 400.939 17.6133 402.689 16.4971C404.487 15.3449 406.504 14.7688 408.74 14.7688Z" fill="#B8B8B8"/>
<path d="M445.206 35.9402C445.206 37.0204 445.401 37.8125 445.79 38.3166C446.227 38.8206 446.907 39.1987 447.831 39.4507L445.425 45.0136C443.044 44.8696 441.099 44.4915 439.593 43.8794C438.086 43.2313 436.92 42.2232 436.093 40.855C433.566 43.7354 429.678 45.1757 424.429 45.1757C420.59 45.1757 417.528 44.3475 415.243 42.6913C412.959 41.035 411.817 38.8747 411.817 36.2102C411.817 33.0777 413.372 30.6833 416.483 29.0271C419.593 27.3708 424.089 26.5427 429.97 26.5427H433.906V25.3005C433.906 23.6082 433.42 22.456 432.448 21.8439C431.476 21.1958 429.775 20.8718 427.345 20.8718C426.082 20.8718 424.551 21.0158 422.752 21.3039C420.954 21.5559 419.107 21.916 417.212 22.384L414.587 16.7671C417.017 16.083 419.496 15.5609 422.023 15.2009C424.599 14.8408 426.981 14.6608 429.168 14.6608C434.708 14.6608 438.767 15.5069 441.342 17.1992C443.918 18.8915 445.206 21.4299 445.206 24.8144V35.9402ZM427.783 39.0727C430.407 39.0727 432.448 38.1545 433.906 36.3182V31.2414H431.063C428.439 31.2414 426.47 31.5835 425.158 32.2676C423.894 32.9517 423.263 34.0139 423.263 35.4541C423.263 36.6063 423.651 37.5064 424.429 38.1545C425.255 38.7666 426.373 39.0727 427.783 39.0727Z" fill="#B8B8B8"/>
<path d="M481.647 15.5789V21.5739L464.15 37.7765H482.011L480.991 44.2575H450.809V38.2085L468.378 22.006H452.34V15.5789H481.647Z" fill="#B8B8B8"/>
</svg>
